<svg width="50" height="69" viewBox="0 0 50 69" fill="none" xmlns="http://www.w3.org/2000/svg">
<path d="M24.764 49.2482C38.4408 49.2482 49.528 38.2236 49.528 24.6241C49.528 11.0246 38.4408 0 24.764 0C11.0872 0 0 11.0246 0 24.6241C0 38.2236 11.0872 49.2482 24.764 49.2482Z" fill="#E7E7E7"/>
<path d="M35.5983 40.3751C35.2021 40.3751 34.8058 40.2253 34.5046 39.9237C31.9023 37.3361 28.4436 35.912 24.764 35.912C21.0845 35.912 17.6258 37.3361 15.0235 39.9237C14.4189 40.5249 13.4386 40.5249 12.834 39.9237C12.2293 39.3224 12.2293 38.3477 12.834 37.7465C16.0224 34.5782 20.257 32.834 24.764 32.834C29.2711 32.834 33.5057 34.5782 36.692 37.7485C37.2967 38.3498 37.2967 39.3245 36.692 39.9257C36.3907 40.2253 35.9945 40.3751 35.5983 40.3751Z" fill="#969696"/>
<path d="M19.0894 15.0461C18.7943 15.0461 18.495 14.9619 18.2309 14.7875L13.0717 11.3668C12.3598 10.8969 12.1678 9.94068 12.6425 9.23274C13.1151 8.5248 14.0767 8.33396 14.7887 8.80592L19.9479 12.2266C20.6598 12.6986 20.8517 13.6528 20.3771 14.3607C20.0779 14.806 19.5888 15.0461 19.0894 15.0461Z" fill="#969696"/>
<path d="M30.4391 15.0466C29.9397 15.0466 29.4485 14.8065 29.1493 14.3612C28.6747 13.6533 28.8666 12.6991 29.5786 12.2272L34.7377 8.80646C35.4456 8.3345 36.4093 8.52328 36.8839 9.23328C37.3586 9.94122 37.1667 10.8954 36.4547 11.3674L31.2955 14.7881C31.0334 14.9645 30.7363 15.0466 30.4391 15.0466Z" fill="#969696"/>
<path d="M15.4775 23.5662C17.1871 23.5662 18.573 22.1881 18.573 20.4882C18.573 18.7882 17.1871 17.4102 15.4775 17.4102C13.7679 17.4102 12.382 18.7882 12.382 20.4882C12.382 22.1881 13.7679 23.5662 15.4775 23.5662Z" fill="#969696"/>
<path d="M34.0506 23.5662C35.7602 23.5662 37.1461 22.1881 37.1461 20.4882C37.1461 18.7882 35.7602 17.4102 34.0506 17.4102C32.341 17.4102 30.9551 18.7882 30.9551 20.4882C30.9551 22.1881 32.341 23.5662 34.0506 23.5662Z" fill="#969696"/>
<path d="M13.7373 59.6621H11.4521V66H10.5195V59.6621H8.23926V58.8906H13.7373V59.6621ZM16.3545 66.0977C15.6383 66.0977 15.0557 65.8633 14.6064 65.3945C14.1572 64.9225 13.9326 64.2926 13.9326 63.5049V63.3389C13.9326 62.8148 14.0319 62.3477 14.2305 61.9375C14.4323 61.5241 14.7122 61.2018 15.0703 60.9707C15.4316 60.7363 15.8223 60.6191 16.2422 60.6191C16.929 60.6191 17.4629 60.8454 17.8438 61.2979C18.2246 61.7503 18.415 62.3981 18.415 63.2412V63.6172H14.8359C14.849 64.138 15.0003 64.5596 15.29 64.8818C15.583 65.2008 15.9541 65.3604 16.4033 65.3604C16.7223 65.3604 16.9925 65.2952 17.2139 65.165C17.4352 65.0348 17.6289 64.8623 17.7949 64.6475L18.3467 65.0771C17.904 65.7575 17.2399 66.0977 16.3545 66.0977ZM16.2422 61.3613C15.8776 61.3613 15.5716 61.4948 15.3242 61.7617C15.0768 62.0254 14.9238 62.3965 14.8652 62.875H17.5117V62.8066C17.4857 62.3477 17.362 61.9928 17.1406 61.7422C16.9193 61.4883 16.6198 61.3613 16.2422 61.3613ZM22.0186 61.5273C21.8818 61.5046 21.7337 61.4932 21.5742 61.4932C20.9818 61.4932 20.5798 61.7454 20.3682 62.25V66H19.4648V60.7168H20.3438L20.3584 61.3271C20.6546 60.8551 21.0745 60.6191 21.6182 60.6191C21.7939 60.6191 21.9274 60.6419 22.0186 60.6875V61.5273ZM25.4072 61.5273C25.2705 61.5046 25.1224 61.4932 24.9629 61.4932C24.3704 61.4932 23.9684 61.7454 23.7568 62.25V66H22.8535V60.7168H23.7324L23.7471 61.3271C24.0433 60.8551 24.4632 60.6191 25.0068 60.6191C25.1826 60.6191 25.3161 60.6419 25.4072 60.6875V61.5273ZM27.2236 66H26.3203V60.7168H27.2236V66ZM26.2471 59.3154C26.2471 59.1689 26.291 59.0452 26.3789 58.9443C26.4701 58.8434 26.6035 58.793 26.7793 58.793C26.9551 58.793 27.0885 58.8434 27.1797 58.9443C27.2708 59.0452 27.3164 59.1689 27.3164 59.3154C27.3164 59.4619 27.2708 59.584 27.1797 59.6816C27.0885 59.7793 26.9551 59.8281 26.7793 59.8281C26.6035 59.8281 26.4701 59.7793 26.3789 59.6816C26.291 59.584 26.2471 59.4619 26.2471 59.3154ZM33.1465 63.417C33.1465 64.2243 32.9609 64.8737 32.5898 65.3652C32.2188 65.8535 31.7207 66.0977 31.0957 66.0977C30.4284 66.0977 29.9124 65.8617 29.5479 65.3896L29.5039 66H28.6738V58.5H29.5771V61.2979C29.9417 60.8454 30.4447 60.6191 31.0859 60.6191C31.7272 60.6191 32.2301 60.8617 32.5947 61.3467C32.9626 61.8317 33.1465 62.4958 33.1465 63.3389V63.417ZM32.2432 63.3145C32.2432 62.6992 32.1243 62.224 31.8867 61.8887C31.6491 61.5534 31.3073 61.3857 30.8613 61.3857C30.2656 61.3857 29.8376 61.6624 29.5771 62.2158V64.501C29.8538 65.0544 30.2852 65.3311 30.8711 65.3311C31.304 65.3311 31.641 65.1634 31.8818 64.8281C32.1227 64.4928 32.2432 63.9883 32.2432 63.3145ZM35.2705 66H34.3672V58.5H35.2705V66ZM38.9131 66.0977C38.1969 66.0977 37.6143 65.8633 37.165 65.3945C36.7158 64.9225 36.4912 64.2926 36.4912 63.5049V63.3389C36.4912 62.8148 36.5905 62.3477 36.7891 61.9375C36.9909 61.5241 37.2708 61.2018 37.6289 60.9707C37.9902 60.7363 38.3809 60.6191 38.8008 60.6191C39.4876 60.6191 40.0215 60.8454 40.4023 61.2979C40.7832 61.7503 40.9736 62.3981 40.9736 63.2412V63.6172H37.3945C37.4076 64.138 37.5589 64.5596 37.8486 64.8818C38.1416 65.2008 38.5127 65.3604 38.9619 65.3604C39.2809 65.3604 39.5511 65.2952 39.7725 65.165C39.9938 65.0348 40.1875 64.8623 40.3535 64.6475L40.9053 65.0771C40.4626 65.7575 39.7985 66.0977 38.9131 66.0977ZM38.8008 61.3613C38.4362 61.3613 38.1302 61.4948 37.8828 61.7617C37.6354 62.0254 37.4824 62.3965 37.4238 62.875H40.0703V62.8066C40.0443 62.3477 39.9206 61.9928 39.6992 61.7422C39.4779 61.4883 39.1784 61.3613 38.8008 61.3613Z" fill="#969696"/>
</svg>
