<svg width="50" height="69" viewBox="0 0 50 69" fill="none" xmlns="http://www.w3.org/2000/svg">
<g clip-path="url(#clip0)">
<path d="M24.6241 49.528C38.2236 49.528 49.2482 38.4408 49.2482 24.764C49.2482 11.0872 38.2236 0 24.6241 0C11.0246 0 0 11.0872 0 24.764C0 38.4408 11.0246 49.528 24.6241 49.528Z" fill="#E7E7E7"/>
<path d="M34.4184 38.1285C34.0244 38.1285 33.6304 37.9768 33.3288 37.6765C28.6748 32.9962 20.5674 32.9962 15.9165 37.6765C15.3163 38.2802 14.3405 38.2802 13.7403 37.6765C13.1401 37.0729 13.1401 36.0917 13.7403 35.488C16.649 32.5659 20.5119 30.9531 24.6242 30.9531C28.7364 30.9531 32.5993 32.5659 35.5049 35.488C36.1052 36.0917 36.1052 37.0729 35.5049 37.6765C35.2064 37.9799 34.8124 38.1285 34.4184 38.1285Z" fill="#969696"/>
<path d="M15.3901 21.6676C17.0901 21.6676 18.4682 20.2817 18.4682 18.5721C18.4682 16.8625 17.0901 15.4766 15.3901 15.4766C13.6902 15.4766 12.3121 16.8625 12.3121 18.5721C12.3121 20.2817 13.6902 21.6676 15.3901 21.6676Z" fill="#969696"/>
<path d="M33.8583 21.6676C35.5582 21.6676 36.9363 20.2817 36.9363 18.5721C36.9363 16.8625 35.5582 15.4766 33.8583 15.4766C32.1583 15.4766 30.7803 16.8625 30.7803 18.5721C30.7803 20.2817 32.1583 21.6676 33.8583 21.6676Z" fill="#969696"/>
</g>
<path d="M16.8252 66V58.8906H19.1494C19.9209 58.8906 20.5003 59.0501 20.8877 59.3691C21.2783 59.6882 21.4736 60.1602 21.4736 60.7852C21.4736 61.1172 21.3792 61.4118 21.1904 61.6689C21.0016 61.9229 20.7445 62.1198 20.4189 62.2598C20.8031 62.3672 21.1058 62.5723 21.3271 62.875C21.5518 63.1745 21.6641 63.5326 21.6641 63.9492C21.6641 64.5872 21.4574 65.0885 21.0439 65.4531C20.6305 65.8177 20.0462 66 19.291 66H16.8252ZM17.7627 62.6748V65.2334H19.3105C19.7467 65.2334 20.0902 65.1211 20.3408 64.8965C20.5947 64.6686 20.7217 64.3561 20.7217 63.959C20.7217 63.1029 20.2562 62.6748 19.3252 62.6748H17.7627ZM17.7627 61.9229H19.1787C19.5889 61.9229 19.916 61.8203 20.1602 61.6152C20.4076 61.4102 20.5312 61.1318 20.5312 60.7803C20.5312 60.3896 20.4173 60.1064 20.1895 59.9307C19.9616 59.7516 19.6149 59.6621 19.1494 59.6621H17.7627V61.9229ZM26.1758 66C26.1237 65.8958 26.0814 65.7103 26.0488 65.4434C25.6289 65.8796 25.1276 66.0977 24.5449 66.0977C24.0241 66.0977 23.596 65.9512 23.2607 65.6582C22.9287 65.362 22.7627 64.9876 22.7627 64.5352C22.7627 63.985 22.971 63.5586 23.3877 63.2559C23.8076 62.9499 24.3968 62.7969 25.1553 62.7969H26.0342V62.3818C26.0342 62.0661 25.9398 61.8154 25.751 61.6299C25.5622 61.4411 25.2839 61.3467 24.916 61.3467C24.5938 61.3467 24.3236 61.4281 24.1055 61.5908C23.8874 61.7536 23.7783 61.9505 23.7783 62.1816H22.8701C22.8701 61.918 22.9629 61.6641 23.1484 61.4199C23.3372 61.1725 23.5911 60.9772 23.9102 60.834C24.2324 60.6908 24.5856 60.6191 24.9697 60.6191C25.5785 60.6191 26.0553 60.7721 26.4004 61.0781C26.7454 61.3809 26.9245 61.7992 26.9375 62.333V64.7646C26.9375 65.2497 26.9993 65.6354 27.123 65.9219V66H26.1758ZM24.6768 65.3115C24.96 65.3115 25.2285 65.2383 25.4824 65.0918C25.7363 64.9453 25.9202 64.7549 26.0342 64.5205V63.4365H25.3262C24.2194 63.4365 23.666 63.7604 23.666 64.4082C23.666 64.6914 23.7604 64.9128 23.9492 65.0723C24.138 65.2318 24.3805 65.3115 24.6768 65.3115ZM28.1338 63.3145C28.1338 62.5039 28.3258 61.8529 28.71 61.3613C29.0941 60.8665 29.597 60.6191 30.2188 60.6191C30.8372 60.6191 31.3271 60.8307 31.6885 61.2539V58.5H32.5918V66H31.7617L31.7178 65.4336C31.3564 65.8763 30.8535 66.0977 30.209 66.0977C29.597 66.0977 29.0973 65.847 28.71 65.3457C28.3258 64.8444 28.1338 64.1901 28.1338 63.3828V63.3145ZM29.0371 63.417C29.0371 64.016 29.1608 64.4847 29.4082 64.8232C29.6556 65.1618 29.9974 65.3311 30.4336 65.3311C31.0065 65.3311 31.4248 65.0739 31.6885 64.5596V62.1328C31.4183 61.6348 31.0033 61.3857 30.4434 61.3857C30.0007 61.3857 29.6556 61.5566 29.4082 61.8984C29.1608 62.2402 29.0371 62.7464 29.0371 63.417Z" fill="#969696"/>
<defs>
<clipPath id="clip0">
<rect width="49.2482" height="49.528" fill="white"/>
</clipPath>
</defs>
</svg>
