<svg width="50" height="69" viewBox="0 0 50 69" fill="none" xmlns="http://www.w3.org/2000/svg">
<g clip-path="url(#clip0)">
<path d="M24.764 49.2482C38.4408 49.2482 49.528 38.2236 49.528 24.6241C49.528 11.0246 38.4408 0 24.764 0C11.0872 0 0 11.0246 0 24.6241C0 38.2236 11.0872 49.2482 24.764 49.2482Z" fill="#FFE34F"/>
<path d="M15.4776 21.5466C17.1872 21.5466 18.5731 20.1686 18.5731 18.4686C18.5731 16.7687 17.1872 15.3906 15.4776 15.3906C13.768 15.3906 12.3821 16.7687 12.3821 18.4686C12.3821 20.1686 13.768 21.5466 15.4776 21.5466Z" fill="#6D4C41"/>
<path d="M34.0506 21.5466C35.7602 21.5466 37.1461 20.1686 37.1461 18.4686C37.1461 16.7687 35.7602 15.3906 34.0506 15.3906C32.341 15.3906 30.9551 16.7687 30.9551 18.4686C30.9551 20.1686 32.341 21.5466 34.0506 21.5466Z" fill="#6D4C41"/>
<path d="M32.5028 36.9374H17.0253C16.1709 36.9374 15.4775 36.2479 15.4775 35.3984C15.4775 34.5488 16.1709 33.8594 17.0253 33.8594H32.5028C33.3572 33.8594 34.0505 34.5488 34.0505 35.3984C34.0505 36.2479 33.3572 36.9374 32.5028 36.9374Z" fill="#6D4C41"/>
</g>
<path d="M19.2939 62.6748C19.2939 63.3714 19.1768 63.9801 18.9424 64.501C18.708 65.0186 18.376 65.4141 17.9463 65.6875C17.5166 65.9609 17.0153 66.0977 16.4424 66.0977C15.8825 66.0977 15.3861 65.9609 14.9531 65.6875C14.5202 65.4108 14.1833 65.0186 13.9424 64.5107C13.7048 63.9997 13.5827 63.4089 13.5762 62.7383V62.2256C13.5762 61.542 13.695 60.9382 13.9326 60.4141C14.1702 59.89 14.5055 59.4896 14.9385 59.2129C15.3747 58.9329 15.8727 58.793 16.4326 58.793C17.0023 58.793 17.5036 58.9313 17.9365 59.208C18.3727 59.4814 18.708 59.8802 18.9424 60.4043C19.1768 60.9251 19.2939 61.5322 19.2939 62.2256V62.6748ZM18.3613 62.2158C18.3613 61.3727 18.1921 60.7266 17.8535 60.2773C17.515 59.8249 17.0413 59.5986 16.4326 59.5986C15.8402 59.5986 15.373 59.8249 15.0312 60.2773C14.6927 60.7266 14.5186 61.3516 14.5088 62.1523V62.6748C14.5088 63.4919 14.6797 64.1348 15.0215 64.6035C15.3665 65.069 15.8402 65.3018 16.4424 65.3018C17.0479 65.3018 17.5166 65.082 17.8486 64.6426C18.1807 64.1999 18.3516 63.5667 18.3613 62.7432V62.2158ZM22.0332 63.5537L21.4668 64.1445V66H20.5635V58.5H21.4668V63.0361L21.9502 62.4551L23.5957 60.7168H24.6943L22.6387 62.9238L24.9336 66H23.874L22.0332 63.5537ZM28.8887 66C28.8366 65.8958 28.7943 65.7103 28.7617 65.4434C28.3418 65.8796 27.8405 66.0977 27.2578 66.0977C26.737 66.0977 26.3089 65.9512 25.9736 65.6582C25.6416 65.362 25.4756 64.9876 25.4756 64.5352C25.4756 63.985 25.6839 63.5586 26.1006 63.2559C26.5205 62.9499 27.1097 62.7969 27.8682 62.7969H28.7471V62.3818C28.7471 62.0661 28.6527 61.8154 28.4639 61.6299C28.2751 61.4411 27.9967 61.3467 27.6289 61.3467C27.3066 61.3467 27.0365 61.4281 26.8184 61.5908C26.6003 61.7536 26.4912 61.9505 26.4912 62.1816H25.583C25.583 61.918 25.6758 61.6641 25.8613 61.4199C26.0501 61.1725 26.304 60.9772 26.623 60.834C26.9453 60.6908 27.2985 60.6191 27.6826 60.6191C28.2913 60.6191 28.7682 60.7721 29.1133 61.0781C29.4583 61.3809 29.6374 61.7992 29.6504 62.333V64.7646C29.6504 65.2497 29.7122 65.6354 29.8359 65.9219V66H28.8887ZM27.3896 65.3115C27.6729 65.3115 27.9414 65.2383 28.1953 65.0918C28.4492 64.9453 28.6331 64.7549 28.7471 64.5205V63.4365H28.0391C26.9323 63.4365 26.3789 63.7604 26.3789 64.4082C26.3789 64.6914 26.4733 64.9128 26.6621 65.0723C26.8509 65.2318 27.0934 65.3115 27.3896 65.3115ZM32.7168 64.6768L33.9473 60.7168H34.9141L32.79 66.8154C32.4613 67.6943 31.9388 68.1338 31.2227 68.1338L31.0518 68.1191L30.7148 68.0557V67.3232L30.959 67.3428C31.265 67.3428 31.5026 67.2809 31.6719 67.1572C31.8444 67.0335 31.986 66.8073 32.0967 66.4785L32.2969 65.9414L30.4121 60.7168H31.3984L32.7168 64.6768Z" fill="#969696"/>
<defs>
<clipPath id="clip0">
<rect width="49.528" height="49.2482" fill="white"/>
</clipPath>
</defs>
</svg>
