<svg width="50" height="69" viewBox="0 0 50 69" fill="none" xmlns="http://www.w3.org/2000/svg">
<g clip-path="url(#clip0)">
<path d="M24.6241 49.528C38.2236 49.528 49.2482 38.4408 49.2482 24.764C49.2482 11.0872 38.2236 0 24.6241 0C11.0246 0 0 11.0872 0 24.764C0 38.4408 11.0246 49.528 24.6241 49.528Z" fill="#E7E7E7"/>
<path d="M24.5933 43.3669C16.3596 43.3669 9.05552 37.8105 6.83011 29.8582C6.59618 29.0348 7.07327 28.1804 7.89203 27.9482C8.7077 27.7192 9.56031 28.1959 9.79116 29.0193C11.6441 35.6468 17.7324 40.2745 24.5933 40.2745C31.4542 40.2745 37.5394 35.6468 39.3955 29.0193C39.6263 28.1959 40.4636 27.713 41.2946 27.9482C42.1134 28.1804 42.5874 29.0379 42.3596 29.8582C40.128 37.8105 32.8239 43.3669 24.5933 43.3669Z" fill="#969696"/>
<path d="M38.4443 20.1509C37.5948 20.1509 36.9053 19.4575 36.9053 18.6031C36.9053 16.8975 35.5264 15.5076 33.8273 15.5076C32.1282 15.5076 30.7493 16.8975 30.7493 18.6031C30.7493 19.4575 30.0598 20.1509 29.2103 20.1509C28.3607 20.1509 27.6713 19.4575 27.6713 18.6031C27.6713 15.1888 30.4322 12.4121 33.8273 12.4121C37.2223 12.4121 39.9833 15.1888 39.9833 18.6031C39.9833 19.4606 39.2938 20.1509 38.4443 20.1509Z" fill="#969696"/>
<path d="M19.9763 20.1509C19.1268 20.1509 18.4373 19.4575 18.4373 18.6031C18.4373 16.8975 17.0553 15.5076 15.3593 15.5076C13.6633 15.5076 12.2813 16.8975 12.2813 18.6031C12.2813 19.4575 11.5918 20.1509 10.7423 20.1509C9.89272 20.1509 9.20325 19.4575 9.20325 18.6031C9.20325 15.1888 11.9642 12.4121 15.3593 12.4121C18.7543 12.4121 21.5153 15.1888 21.5153 18.6031C21.5153 19.4606 20.8258 20.1509 19.9763 20.1509Z" fill="#969696"/>
</g>
<path d="M19.0742 65.0674C18.8333 65.4124 18.4964 65.6712 18.0635 65.8438C17.6338 66.013 17.1325 66.0977 16.5596 66.0977C15.9801 66.0977 15.4658 65.9626 15.0166 65.6924C14.5674 65.4189 14.2191 65.0316 13.9717 64.5303C13.7275 64.029 13.6022 63.4479 13.5957 62.7871V62.167C13.5957 61.096 13.8447 60.266 14.3428 59.6768C14.8441 59.0876 15.5472 58.793 16.4521 58.793C17.1943 58.793 17.7917 58.9834 18.2441 59.3643C18.6966 59.7419 18.9733 60.279 19.0742 60.9756H18.1367C17.9609 60.0348 17.401 59.5645 16.457 59.5645C15.8288 59.5645 15.3519 59.7858 15.0264 60.2285C14.7041 60.668 14.5413 61.306 14.5381 62.1426V62.7236C14.5381 63.5212 14.7204 64.1559 15.085 64.6279C15.4495 65.0967 15.9427 65.3311 16.5645 65.3311C16.916 65.3311 17.2236 65.292 17.4873 65.2139C17.751 65.1357 17.9691 65.0039 18.1416 64.8184V63.2217H16.4961V62.46H19.0742V65.0674ZM20.2607 63.3096C20.2607 62.792 20.3617 62.3265 20.5635 61.9131C20.7686 61.4997 21.0518 61.1807 21.4131 60.9561C21.7777 60.7314 22.1927 60.6191 22.6582 60.6191C23.3776 60.6191 23.9587 60.8682 24.4014 61.3662C24.8473 61.8643 25.0703 62.5267 25.0703 63.3535V63.417C25.0703 63.9313 24.971 64.3936 24.7725 64.8037C24.5771 65.2106 24.2956 65.528 23.9277 65.7559C23.5632 65.9837 23.1432 66.0977 22.668 66.0977C21.9518 66.0977 21.3708 65.8486 20.9248 65.3506C20.4821 64.8525 20.2607 64.1934 20.2607 63.373V63.3096ZM21.1689 63.417C21.1689 64.0029 21.304 64.4733 21.5742 64.8281C21.8477 65.1829 22.2122 65.3604 22.668 65.3604C23.127 65.3604 23.4915 65.1813 23.7617 64.8232C24.0319 64.4619 24.167 63.9574 24.167 63.3096C24.167 62.7301 24.0286 62.2614 23.752 61.9033C23.4785 61.542 23.1139 61.3613 22.6582 61.3613C22.2122 61.3613 21.8525 61.5387 21.5791 61.8936C21.3057 62.2484 21.1689 62.7562 21.1689 63.417ZM25.9639 63.3096C25.9639 62.792 26.0648 62.3265 26.2666 61.9131C26.4717 61.4997 26.7549 61.1807 27.1162 60.9561C27.4808 60.7314 27.8958 60.6191 28.3613 60.6191C29.0807 60.6191 29.6618 60.8682 30.1045 61.3662C30.5505 61.8643 30.7734 62.5267 30.7734 63.3535V63.417C30.7734 63.9313 30.6742 64.3936 30.4756 64.8037C30.2803 65.2106 29.9987 65.528 29.6309 65.7559C29.2663 65.9837 28.8464 66.0977 28.3711 66.0977C27.6549 66.0977 27.0739 65.8486 26.6279 65.3506C26.1852 64.8525 25.9639 64.1934 25.9639 63.373V63.3096ZM26.8721 63.417C26.8721 64.0029 27.0072 64.4733 27.2773 64.8281C27.5508 65.1829 27.9154 65.3604 28.3711 65.3604C28.8301 65.3604 29.1947 65.1813 29.4648 64.8232C29.735 64.4619 29.8701 63.9574 29.8701 63.3096C29.8701 62.7301 29.7318 62.2614 29.4551 61.9033C29.1816 61.542 28.8171 61.3613 28.3613 61.3613C27.9154 61.3613 27.5557 61.5387 27.2822 61.8936C27.0088 62.2484 26.8721 62.7562 26.8721 63.417ZM31.6865 63.3145C31.6865 62.5039 31.8786 61.8529 32.2627 61.3613C32.6468 60.8665 33.1497 60.6191 33.7715 60.6191C34.39 60.6191 34.8799 60.8307 35.2412 61.2539V58.5H36.1445V66H35.3145L35.2705 65.4336C34.9092 65.8763 34.4062 66.0977 33.7617 66.0977C33.1497 66.0977 32.6501 65.847 32.2627 65.3457C31.8786 64.8444 31.6865 64.1901 31.6865 63.3828V63.3145ZM32.5898 63.417C32.5898 64.016 32.7135 64.4847 32.9609 64.8232C33.2083 65.1618 33.5501 65.3311 33.9863 65.3311C34.5592 65.3311 34.9775 65.0739 35.2412 64.5596V62.1328C34.971 61.6348 34.556 61.3857 33.9961 61.3857C33.5534 61.3857 33.2083 61.5566 32.9609 61.8984C32.7135 62.2402 32.5898 62.7464 32.5898 63.417Z" fill="#969696"/>
<defs>
<clipPath id="clip0">
<rect width="49.2482" height="49.528" fill="white"/>
</clipPath>
</defs>
</svg>
