<svg width="50" height="69" viewBox="0 0 50 69" fill="none" xmlns="http://www.w3.org/2000/svg">
<g clip-path="url(#clip0)">
<path d="M24.764 49.528C38.4408 49.528 49.528 38.4408 49.528 24.764C49.528 11.0872 38.4408 0 24.764 0C11.0872 0 0 11.0872 0 24.764C0 38.4408 11.0872 49.528 24.764 49.528Z" fill="#E7E7E7"/>
<path d="M38.6627 20.1509C37.8084 20.1509 37.115 19.4575 37.115 18.6031C37.115 16.8975 35.7282 15.5076 34.0195 15.5076C32.3108 15.5076 30.924 16.8975 30.924 18.6031C30.924 19.4575 30.2306 20.1509 29.3762 20.1509C28.5219 20.1509 27.8285 19.4575 27.8285 18.6031C27.8285 15.1888 30.6052 12.4121 34.0195 12.4121C37.4338 12.4121 40.2105 15.1888 40.2105 18.6031C40.2105 19.4606 39.5171 20.1509 38.6627 20.1509Z" fill="#969696"/>
<path d="M20.0897 20.1509C19.2354 20.1509 18.542 19.4575 18.542 18.6031C18.542 16.8975 17.1521 15.5076 15.4465 15.5076C13.7409 15.5076 12.351 16.8975 12.351 18.6031C12.351 19.4575 11.6576 20.1509 10.8032 20.1509C9.94889 20.1509 9.25549 19.4575 9.25549 18.6031C9.25549 15.1888 12.0322 12.4121 15.4465 12.4121C18.8608 12.4121 21.6375 15.1888 21.6375 18.6031C21.6375 19.4606 20.9441 20.1509 20.0897 20.1509Z" fill="#969696"/>
<path d="M42.3403 28.5066C42.0462 28.1197 41.5911 27.8906 41.1082 27.8906H8.35785C7.87186 27.8906 7.41682 28.1166 7.12584 28.5035C6.82868 28.8936 6.73581 29.3919 6.86582 29.8594C9.10387 37.8117 16.4526 43.3681 24.73 43.3681C33.0073 43.3681 40.356 37.8117 42.5941 29.8594C42.7272 29.3919 42.6343 28.8936 42.3403 28.5066Z" fill="#FAFAFA"/>
</g>
<path d="M8.84375 62.7139H5.7627V65.2334H9.3418V66H4.8252V58.8906H9.29297V59.6621H5.7627V61.9473H8.84375V62.7139ZM12.1396 62.6455L13.3115 60.7168H14.3662L12.6377 63.3291L14.4199 66H13.375L12.1543 64.0225L10.9336 66H9.88379L11.666 63.3291L9.9375 60.7168H10.9824L12.1396 62.6455ZM17.3496 65.3604C17.6719 65.3604 17.9535 65.2627 18.1943 65.0674C18.4352 64.8721 18.5687 64.6279 18.5947 64.335H19.4492C19.4329 64.6377 19.3288 64.9258 19.1367 65.1992C18.9447 65.4727 18.6875 65.6908 18.3652 65.8535C18.0462 66.0163 17.7077 66.0977 17.3496 66.0977C16.6302 66.0977 16.0573 65.8584 15.6309 65.3799C15.2077 64.8981 14.9961 64.2406 14.9961 63.4072V63.2559C14.9961 62.7415 15.0905 62.2842 15.2793 61.8838C15.4681 61.4834 15.7383 61.1725 16.0898 60.9512C16.4447 60.7298 16.863 60.6191 17.3447 60.6191C17.9372 60.6191 18.4287 60.7965 18.8193 61.1514C19.2132 61.5062 19.4232 61.9668 19.4492 62.5332H18.5947C18.5687 62.1914 18.4385 61.9115 18.2041 61.6934C17.973 61.472 17.6865 61.3613 17.3447 61.3613C16.8857 61.3613 16.5293 61.5273 16.2754 61.8594C16.0247 62.1882 15.8994 62.665 15.8994 63.29V63.4609C15.8994 64.0697 16.0247 64.5384 16.2754 64.8672C16.526 65.196 16.8841 65.3604 17.3496 65.3604ZM22.6572 66.0977C21.9411 66.0977 21.3584 65.8633 20.9092 65.3945C20.46 64.9225 20.2354 64.2926 20.2354 63.5049V63.3389C20.2354 62.8148 20.3346 62.3477 20.5332 61.9375C20.735 61.5241 21.015 61.2018 21.373 60.9707C21.7344 60.7363 22.125 60.6191 22.5449 60.6191C23.2318 60.6191 23.7656 60.8454 24.1465 61.2979C24.5273 61.7503 24.7178 62.3981 24.7178 63.2412V63.6172H21.1387C21.1517 64.138 21.3031 64.5596 21.5928 64.8818C21.8857 65.2008 22.2568 65.3604 22.7061 65.3604C23.0251 65.3604 23.2952 65.2952 23.5166 65.165C23.738 65.0348 23.9316 64.8623 24.0977 64.6475L24.6494 65.0771C24.2067 65.7575 23.5426 66.0977 22.6572 66.0977ZM22.5449 61.3613C22.1803 61.3613 21.8743 61.4948 21.627 61.7617C21.3796 62.0254 21.2266 62.3965 21.168 62.875H23.8145V62.8066C23.7884 62.3477 23.6647 61.9928 23.4434 61.7422C23.222 61.4883 22.9225 61.3613 22.5449 61.3613ZM26.749 66H25.8457V58.5H26.749V66ZM29.1807 66H28.2773V58.5H29.1807V66ZM32.8232 66.0977C32.1071 66.0977 31.5244 65.8633 31.0752 65.3945C30.626 64.9225 30.4014 64.2926 30.4014 63.5049V63.3389C30.4014 62.8148 30.5007 62.3477 30.6992 61.9375C30.901 61.5241 31.181 61.2018 31.5391 60.9707C31.9004 60.7363 32.291 60.6191 32.7109 60.6191C33.3978 60.6191 33.9316 60.8454 34.3125 61.2979C34.6934 61.7503 34.8838 62.3981 34.8838 63.2412V63.6172H31.3047C31.3177 64.138 31.4691 64.5596 31.7588 64.8818C32.0518 65.2008 32.4229 65.3604 32.8721 65.3604C33.1911 65.3604 33.4613 65.2952 33.6826 65.165C33.904 65.0348 34.0977 64.8623 34.2637 64.6475L34.8154 65.0771C34.3727 65.7575 33.7087 66.0977 32.8232 66.0977ZM32.7109 61.3613C32.3464 61.3613 32.0404 61.4948 31.793 61.7617C31.5456 62.0254 31.3926 62.3965 31.334 62.875H33.9805V62.8066C33.9544 62.3477 33.8307 61.9928 33.6094 61.7422C33.388 61.4883 33.0885 61.3613 32.7109 61.3613ZM36.7881 60.7168L36.8174 61.3809C37.221 60.873 37.7484 60.6191 38.3994 60.6191C39.516 60.6191 40.0791 61.249 40.0889 62.5088V66H39.1855V62.5039C39.1823 62.123 39.0944 61.8415 38.9219 61.6592C38.7526 61.4769 38.4873 61.3857 38.126 61.3857C37.833 61.3857 37.5758 61.4639 37.3545 61.6201C37.1331 61.7764 36.9606 61.9814 36.8369 62.2354V66H35.9336V60.7168H36.7881ZM42.6768 59.4375V60.7168H43.6631V61.415H42.6768V64.6914C42.6768 64.903 42.7207 65.0625 42.8086 65.1699C42.8965 65.2741 43.0462 65.3262 43.2578 65.3262C43.362 65.3262 43.5052 65.3066 43.6875 65.2676V66C43.4499 66.0651 43.2188 66.0977 42.9941 66.0977C42.5905 66.0977 42.2861 65.9756 42.0811 65.7314C41.876 65.4873 41.7734 65.1406 41.7734 64.6914V61.415H40.8115V60.7168H41.7734V59.4375H42.6768Z" fill="#969696"/>
<defs>
<clipPath id="clip0">
<rect width="49.528" height="49.528" fill="white"/>
</clipPath>
</defs>
</svg>
